name C:\Users\u0101727\Documents\MyRepositories\upper-imu-dc\Results\main_tracking\Case_40\FLX01_linearAccelerations_bodyFrame.mot
datacolumns 4
datarows 141
range 5.01000000 6.41000000
endheader 
time	radius_imu_x	radius_imu_y	radius_imu_z	
          5.01000000	          2.31467577	          4.41444757	         13.20084358	
          5.02000000	          2.29083802	          4.26008993	         13.19902392	
          5.03000000	          2.42139977	          4.27144825	         13.11456054	
          5.04000000	          2.80126433	          3.93419274	         12.83445201	
          5.05000000	          2.98589498	          3.68081725	         12.77499468	
          5.06000000	          3.30177857	          3.69135970	         12.73579487	
          5.07000000	          3.70120036	          3.79240630	         12.65436155	
          5.08000000	          4.18436763	          4.02225350	         12.51329828	
          5.09000000	          4.73651139	          4.35536839	         12.29776562	
          5.10000000	          5.29690859	          4.75975470	         11.99904599	
          5.11000000	          5.79232603	          5.20012410	         11.61508777	
          5.12000000	          6.16197799	          5.65252059	         11.15066847	
          5.13000000	          6.37801638	          6.11104340	         10.61784022	
          5.14000000	          6.44700990	          6.58580471	         10.03500883	
          5.15000000	          6.39485647	          7.09332810	          9.42446259	
          5.16000000	          6.24486424	          7.64450314	          8.80900420	
          5.17000000	          6.00255528	          8.23552828	          8.20938634	
          5.18000000	          5.65146064	          8.84538468	          7.64334592	
          5.19000000	          5.15593216	          9.44067334	          7.12549365	
          5.20000000	          4.47078656	          9.98568378	          6.66735975	
          5.21000000	          3.55752374	         10.45259017	          6.27732035	
          5.22000000	          2.39839577	         10.82636584	          5.95970906	
          5.23000000	          1.00066753	         11.10301271	          5.71270711	
          5.24000000	         -0.60702325	         11.28418465	          5.52573901	
          5.25000000	         -2.38147724	         11.37214552	          5.37758183	
          5.26000000	         -4.27305209	         11.36748460	          5.23617828	
          5.27000000	         -6.23351161	         11.27009887	          5.06097029	
          5.28000000	         -8.22006657	         11.08233150	          4.80809482	
          5.29000000	        -10.19291673	         10.81267014	          4.43767834	
          5.30000000	        -12.10761462	         10.47843146	          3.92132077	
          5.31000000	        -13.90873749	         10.10601348	          3.24768541	
          5.32000000	        -15.52646100	          9.72796721	          2.42416672	
          5.33000000	        -16.88914762	          9.38015379	          1.47740882	
          5.34000000	        -17.85316747	          9.15671749	          0.43159852	
          5.35000000	        -18.51755693	          8.99936293	         -0.48553697	
          5.36000000	        -18.99265474	          8.62994812	         -1.08355951	
          5.37000000	        -18.52465780	          9.23806764	         -1.83952353	
          5.38000000	        -18.13065182	          9.08834324	         -1.61427656	
          5.39000000	        -16.54590841	          9.36342584	         -1.22156774	
          5.40000000	        -14.59125842	          9.12808704	         -0.09763181	
          5.41000000	        -12.09085389	          9.05408061	          1.36150446	
          5.42000000	         -9.49522727	          8.99608124	          2.96965232	
          5.43000000	         -7.02202706	          8.96388928	          4.54646098	
          5.44000000	         -4.81937075	          8.94228965	          5.96361985	
          5.45000000	         -2.97608162	          8.91436016	          7.13490796	
          5.46000000	         -1.51758507	          8.87765697	          8.01774136	
          5.47000000	         -0.44217893	          8.82977015	          8.59978409	
          5.48000000	          0.27854811	          8.77339413	          8.88991628	
          5.49000000	          0.69164546	          8.71209387	          8.90048338	
          5.50000000	          0.86427902	          8.65614838	          8.63970720	
          5.51000000	          0.90426388	          8.60820167	          8.08842729	
          5.52000000	          0.91038255	          8.63247229	          7.23036172	
          5.53000000	          1.30626001	          8.52603813	          5.91186122	
          5.54000000	          1.28674663	          8.60850928	          4.79894225	
          5.55000000	          0.90640406	          8.50081278	          4.01998340	
          5.56000000	         -0.21243358	          8.54055945	          4.02041762	
          5.57000000	         -1.16939810	          8.87090504	          4.11366721	
          5.58000000	         -1.43032535	          9.12967668	          4.24866973	
          5.59000000	         -1.43372212	          9.35278951	          4.38359653	
          5.60000000	         -1.26675344	          9.53807117	          4.50357990	
          5.61000000	         -1.01397188	          9.69241944	          4.60163377	
          5.62000000	         -0.73536767	          9.82658380	          4.65683105	
          5.63000000	         -0.47745975	          9.95874549	          4.63213098	
          5.64000000	         -0.27050440	         10.08840973	          4.46095242	
          5.65000000	         -0.10084804	         10.19596566	          4.06870875	
          5.66000000	          0.18872704	         10.02095682	          3.26612377	
          5.67000000	          0.63578816	          9.03176548	          2.33417031	
          5.68000000	         -0.29827983	          9.42484593	          2.46209953	
          5.69000000	         -1.53334006	          9.92247111	          2.74500705	
          5.70000000	         -1.96357317	         10.11927375	          2.95424519	
          5.71000000	         -2.16856536	         10.18538551	          3.03505072	
          5.72000000	         -2.17326786	         10.20345556	          2.99133760	
          5.73000000	         -2.02151791	         10.21308019	          2.85395541	
          5.74000000	         -1.74577934	         10.23532582	          2.66247485	
          5.75000000	         -1.38578985	         10.28120729	          2.46034562	
          5.76000000	         -0.98973360	         10.35632631	          2.28907257	
          5.77000000	         -0.61464644	         10.46483733	          2.18122457	
          5.78000000	         -0.32358645	         10.60985218	          2.14840244	
          5.79000000	         -0.17529463	         10.79147600	          2.16625681	
          5.80000000	         -0.18564098	         10.97868569	          2.13959613	
          5.81000000	         -0.24784169	         11.12392734	          1.94389068	
          5.82000000	          0.15144603	         10.73507821	          1.22598175	
          5.83000000	          0.39685662	         10.88206808	          0.55986406	
          5.84000000	         -0.29871494	         10.68954601	          1.49988319	
          5.85000000	         -0.98659030	         10.67489157	          2.68347065	
          5.86000000	         -1.57295565	         10.61650994	          4.19681699	
          5.87000000	         -2.04146571	         10.48635217	          5.73635188	
          5.88000000	         -2.47134624	         10.32889315	          7.01908417	
          5.89000000	         -2.69189350	         10.18129778	          7.66484300	
          5.90000000	         -1.63187818	          9.81095191	          7.07722459	
          5.91000000	         -0.97022581	         10.31092657	          6.40118930	
          5.92000000	         -0.86265374	          9.96236020	          5.50832522	
          5.93000000	          0.92520097	         10.23600977	          4.51050900	
          5.94000000	          0.31506367	         10.28940682	          4.66660867	
          5.95000000	         -0.85893785	          9.95736255	          5.14371008	
          5.96000000	          0.33664595	         10.00866429	          4.78830318	
          5.97000000	          2.26208244	         10.35976817	          4.52830093	
          5.98000000	          1.10430934	         10.10288469	          5.30763858	
          5.99000000	          0.49320160	          9.95977813	          5.89032802	
          6.00000000	          1.78475789	          9.97782110	          5.82253654	
          6.01000000	          2.01626829	          9.99379892	          5.92432979	
          6.02000000	          1.52972168	          9.95196001	          6.07961748	
          6.03000000	          2.09928831	          9.99860280	          5.85419932	
          6.04000000	          1.83361590	         10.04928240	          5.73239676	
          6.05000000	          1.76272779	         10.08802394	          5.48135673	
          6.06000000	          1.84452977	         10.15785230	          5.10686381	
          6.07000000	          1.38654191	         10.15046579	          4.76955490	
          6.08000000	          1.69704902	         10.21606533	          4.41456377	
          6.09000000	          0.49327579	         10.02178869	          4.24048429	
          6.10000000	          1.42864856	         10.04969865	          3.40105695	
          6.11000000	          0.37122528	          9.97356498	          2.85026769	
          6.12000000	          1.23582908	          9.94708641	          1.97824034	
          6.13000000	          0.25760591	          9.82753248	          1.55625516	
          6.14000000	          0.07634605	          9.71394943	          1.10428502	
          6.15000000	         -0.09635042	          9.66414624	          0.68968764	
          6.16000000	         -0.18908108	          9.65605301	          0.31140412	
          6.17000000	         -0.26184823	          9.67835979	         -0.00683890	
          6.18000000	         -0.36474373	          9.71599046	         -0.25256289	
          6.19000000	         -0.55327747	          9.75284125	         -0.41733107	
          6.20000000	         -0.85597101	          9.77454279	         -0.50040971	
          6.21000000	         -1.25965156	          9.77200207	         -0.51178276	
          6.22000000	         -1.71249668	          9.74362484	         -0.47330999	
          6.23000000	         -2.14457831	          9.69555098	         -0.41369050	
          6.24000000	         -2.49434278	          9.63931145	         -0.35815075	
          6.25000000	         -2.72852512	          9.58759295	         -0.31907217	
          6.26000000	         -2.84900497	          9.55008660	         -0.29303187	
          6.27000000	         -2.88792650	          9.53070461	         -0.26451101	
          6.28000000	         -2.89548752	          9.52656652	         -0.21308282	
          6.29000000	         -2.92179375	          9.52948153	         -0.12078434	
          6.30000000	         -2.99550834	          9.53016501	          0.02204393	
          6.31000000	         -3.11000770	          9.52320473	          0.21317102	
          6.32000000	         -3.22724382	          9.50983834	          0.43810579	
          6.33000000	         -3.29647338	          9.49714960	          0.67349085	
          6.34000000	         -3.27468005	          9.49455232	          0.89297168	
          6.35000000	         -3.13858612	          9.50964696	          1.07299530	
          6.36000000	         -2.88756915	          9.54522012	          1.19662317	
          6.37000000	         -2.54053004	          9.59825456	          1.25503466	
          6.38000000	         -2.12891485	          9.66099132	          1.24742485	
          6.39000000	         -1.68927206	          9.72325541	          1.17991040	
          6.40000000	         -1.25673140	          9.77534105	          1.06432316	
          6.41000000	         -0.85779694	          9.81091989	          0.91783663	
